<svg width="80" height="36" viewBox="0 0 80 36" fill="none" xmlns="http://www.w3.org/2000/svg">
<path fill-rule="evenodd" clip-rule="evenodd" d="M0.9619 17.5422C0.320634 19.1265 0 20.858 0 22.7369C0 24.6158 0.320634 26.366 0.9619 27.9869C1.63879 29.5712 2.54725 30.9712 3.68729 32.1869C4.82731 33.3659 6.14548 34.3054 7.64176 35.0054C9.17367 35.6686 10.8125 36.0002 12.5581 36.0002C14.3038 36.0002 15.9248 35.6686 17.4211 35.0054C18.953 34.3054 20.2891 33.3659 21.4291 32.1869C22.5689 30.9712 23.4597 29.5712 24.101 27.9869C24.7778 26.366 25.1163 24.6158 25.1163 22.7369C25.1163 20.858 24.7778 19.1265 24.101 17.5422C23.4597 15.9212 22.5689 14.5212 21.4291 13.3422C20.2891 12.1265 18.953 11.187 17.4211 10.5238C15.9248 9.82385 14.3038 9.47385 12.5581 9.47385C10.8125 9.47385 9.17367 9.82385 7.64176 10.5238C6.14548 11.187 4.82731 12.1265 3.68729 13.3422C2.54725 14.5212 1.63879 15.9212 0.9619 17.5422ZM16.3522 18.0946C17.3853 19.2367 17.9019 20.7841 17.9019 22.7367C17.9019 24.6894 17.3853 26.2367 16.3522 27.3789C15.319 28.5208 14.0543 29.092 12.558 29.092C11.0617 29.092 9.79698 28.5208 8.76383 27.3789C7.73068 26.2367 7.21411 24.6894 7.21411 22.7367C7.21411 20.7841 7.73068 19.2367 8.76383 18.0946C9.79698 16.9525 11.0617 16.3815 12.558 16.3815C14.0543 16.3815 15.319 16.9525 16.3522 18.0946Z" fill="url(#paint0_linear_2_888)"/>
<path d="M41.5159 10.4209C41.8466 10.4209 42.1405 10.4393 42.3978 10.4759C42.6919 10.5126 42.9307 10.5493 43.1144 10.586C43.3351 10.6226 43.5371 10.6593 43.7209 10.696V18.3971C43.5004 18.3238 43.2431 18.2321 42.949 18.1221C42.6919 18.0488 42.3978 17.9938 42.0671 17.9571C41.7363 17.8837 41.3689 17.8471 40.9647 17.8471C39.568 17.8471 38.4289 18.3055 37.5468 19.2223C36.7015 20.1391 36.279 21.4227 36.279 23.0728V35.9999H28.8372V10.696H34.3495L35.4521 13.4464C35.8932 12.8963 36.426 12.4012 37.0507 11.9612C37.5651 11.5578 38.19 11.2094 38.9249 10.916C39.6967 10.5859 40.5603 10.4209 41.5159 10.4209Z" fill="url(#paint1_linear_2_888)"/>
<path fill-rule="evenodd" clip-rule="evenodd" d="M69.7835 27.4118C69.7127 27.6087 69.6373 27.8038 69.5569 27.9968C68.919 29.579 68.0329 30.9774 66.8988 32.1917C65.7649 33.3692 64.4357 34.3074 62.9118 35.0067C61.4233 35.6688 59.8108 36 58.0741 36C56.3376 36 54.7074 35.6688 53.1833 35.0067C51.6948 34.3074 50.3835 33.3692 49.2494 32.1917C48.1153 30.9774 47.2117 29.579 46.5383 27.9968C45.9004 26.3779 45.5814 24.6299 45.5814 22.7533C45.5814 20.8767 45.9004 19.1473 46.5383 17.5651C47.2117 15.946 48.1153 14.5478 49.2494 13.3703C50.3835 12.156 51.6948 11.2177 53.1833 10.5553C54.7074 9.8562 56.3376 9.50663 58.0741 9.50663C59.8108 9.50663 61.4233 9.8562 62.9118 10.5553C63.6231 10.8645 64.2921 11.2338 64.9184 11.6632L80 0L68.7362 15.6992C70.8941 19.2289 71.2432 23.6075 69.7835 27.4118ZM65.015 5.708C65.6635 6.3813 66.7149 6.3813 67.3634 5.708C68.012 5.03472 68.012 3.94311 67.3634 3.26983C66.7149 2.59653 65.6635 2.59653 65.015 3.26983C64.3666 3.94311 64.3666 5.03472 65.015 5.708ZM76.8506 15.5578C76.2022 16.2311 75.1507 16.2311 74.5021 15.5578C73.8536 14.8845 73.8536 13.7929 74.5021 13.1196C75.1507 12.4463 76.2022 12.4463 76.8506 13.1196C77.4991 13.7929 77.4991 14.8845 76.8506 15.5578ZM64.2302 22.7532C64.2302 26.3097 61.4534 29.1926 58.0281 29.1926C54.6029 29.1926 51.826 26.3097 51.826 22.7532C51.826 19.1969 54.6029 16.3139 58.0281 16.3139C61.4534 16.3139 64.2302 19.1969 64.2302 22.7532ZM59.8097 24.6034C58.8257 25.625 57.2302 25.625 56.2463 24.6034C55.2621 23.5816 55.2621 21.9253 56.2463 20.9037C57.2302 19.882 58.8257 19.882 59.8097 20.9037C60.7938 21.9253 60.7938 23.5816 59.8097 24.6034Z" fill="url(#paint2_linear_2_888)"/>
<defs>
<linearGradient id="paint0_linear_2_888" x1="-0.890023" y1="22.1365" x2="12.3751" y2="33.9356" gradientUnits="userSpaceOnUse">
<stop stop-color="#F9CA36"/>
<stop offset="1" stop-color="#F8B830"/>
</linearGradient>
<linearGradient id="paint1_linear_2_888" x1="30.0305" y1="25.5289" x2="41.6373" y2="27.76" gradientUnits="userSpaceOnUse">
<stop stop-color="#F9CA36"/>
<stop offset="1" stop-color="#F8B830"/>
</linearGradient>
<linearGradient id="paint2_linear_2_888" x1="44.2459" y1="17.0665" x2="62.0536" y2="33.5039" gradientUnits="userSpaceOnUse">
<stop stop-color="#F9CA36"/>
<stop offset="1" stop-color="#F8B830"/>
</linearGradient>
</defs>
</svg>
